<?xml version="1.0" standalone="no"?>
<!DOCTYPE svg PUBLIC "-//W3C//DTD SVG 20010904//EN"
 "http://www.w3.org/TR/2001/REC-SVG-20010904/DTD/svg10.dtd">
<svg version="1.0" xmlns="http://www.w3.org/2000/svg"
 width="1413.000000pt" height="199.000000pt" viewBox="0 0 1413.000000 199.000000"
 preserveAspectRatio="xMidYMid meet">
<metadata>
Created by potrace 1.16, written by Peter Selinger 2001-2019
</metadata>
<g transform="translate(0.000000,199.000000) scale(0.100000,-0.100000)"
fill="#000000" stroke="none">
<path d="M0 1423 l0 -568 565 565 c311 311 565 566 565 567 0 2 -254 3 -565 3
l-565 0 0 -567z"/>
<path d="M1000 995 l-995 -995 460 0 460 0 543 543 543 542 540 -542 539 -543
465 0 465 0 -2 538 -3 537 -297 3 -298 2 -2 -250 -3 -250 -415 415 -415 415
718 0 717 0 0 290 0 290 -1013 0 -1012 0 -995 -995z"/>
<path d="M4610 1984 c0 -3 59 -140 130 -304 l130 -299 0 -121 0 -120 95 0 95
0 0 120 0 119 66 153 c36 84 95 219 130 300 35 80 64 149 64 152 0 3 -44 6
-99 6 l-98 0 -78 -191 c-43 -104 -81 -187 -85 -182 -4 4 -40 90 -80 191 l-72
182 -99 0 c-54 0 -99 -3 -99 -6z"/>
<path d="M5510 1975 c-60 -27 -101 -66 -126 -119 -23 -49 -24 -59 -24 -292 l0
-242 28 -53 c33 -64 97 -112 172 -128 94 -20 283 -10 378 20 l32 11 0 199 0
199 -90 0 -90 0 0 -129 0 -129 -32 -5 c-106 -16 -184 9 -199 64 -11 38 -10
365 1 393 21 57 77 68 271 53 l96 -8 11 82 c7 45 9 85 6 88 -3 3 -94 7 -202 9
-161 2 -203 -1 -232 -13z"/>
<path d="M4690 425 l0 -425 265 0 265 0 0 85 0 85 -170 0 -170 0 0 90 0 90
160 0 160 0 0 85 0 85 -160 0 -160 0 0 80 0 80 170 0 170 0 0 85 0 85 -265 0
-265 0 0 -425z"/>
<path d="M5370 425 l0 -425 90 0 90 0 1 278 0 277 140 -277 139 -278 120 0
120 0 0 425 0 425 -90 0 -90 0 0 -287 c0 -238 -2 -284 -13 -268 -7 11 -71 140
-142 288 l-128 267 -119 0 -118 0 0 -425z"/>
<path d="M6150 765 l0 -85 115 0 115 0 0 -340 0 -340 95 0 95 0 0 340 0 340
115 0 115 0 0 85 0 85 -325 0 -325 0 0 -85z"/>
<path d="M6900 425 l0 -425 265 0 265 0 0 85 0 85 -170 0 -170 0 0 90 0 90
160 0 160 0 0 85 0 85 -160 0 -160 0 0 80 0 80 170 0 170 0 0 85 0 85 -265 0
-265 0 0 -425z"/>
<path d="M7580 425 l0 -425 95 0 94 0 3 132 3 132 54 0 54 1 95 -133 95 -132
114 0 c86 0 112 3 107 12 -4 6 -49 71 -100 144 l-92 132 33 24 c63 42 79 87
83 223 5 147 -7 196 -57 246 -59 60 -108 69 -363 69 l-218 0 0 -425z m431 226
c15 -18 19 -39 19 -96 0 -111 -10 -119 -149 -123 l-111 -4 0 127 0 127 111 -4
c102 -3 112 -5 130 -27z"/>
<path d="M8290 765 l0 -85 115 0 115 0 0 -340 0 -340 95 0 95 0 0 340 0 340
115 0 115 0 0 85 0 85 -325 0 -325 0 0 -85z"/>
<path d="M9165 838 c-2 -7 -59 -193 -125 -413 -66 -220 -123 -406 -125 -413
-4 -10 18 -12 97 -10 l102 3 22 75 21 75 141 3 140 3 16 -53 c8 -29 18 -65 21
-81 l7 -27 99 0 c54 0 99 3 99 8 0 4 -57 195 -126 425 l-127 417 -129 0 c-94
0 -130 -3 -133 -12z m183 -352 c23 -87 41 -161 38 -163 -2 -2 -44 -2 -93 -1
l-90 3 45 168 c25 92 48 164 52 160 4 -5 25 -80 48 -167z"/>
<path d="M9780 425 l0 -425 95 0 95 0 0 425 0 425 -95 0 -95 0 0 -425z"/>
<path d="M10140 425 l0 -425 90 0 90 0 2 273 3 272 138 -272 137 -273 120 0
120 0 0 425 0 425 -90 0 -90 0 -2 -287 -3 -288 -36 75 c-20 41 -82 171 -139
288 l-103 212 -119 0 -118 0 0 -425z"/>
<path d="M11019 753 c0 -54 -2 -114 -4 -133 -2 -19 -6 -109 -9 -200 -3 -91 -9
-222 -13 -292 l-6 -128 96 0 95 0 2 163 c1 89 4 180 5 202 2 22 4 51 5 65 1
20 5 14 21 -25 11 -27 43 -105 71 -172 l50 -123 87 0 87 0 69 170 c38 93 70
169 71 167 4 -4 13 -240 13 -344 l1 -103 95 0 96 0 -5 103 c-9 171 -15 314
-22 492 -3 94 -7 188 -9 210 l-3 40 -97 0 -97 0 -92 -245 c-50 -135 -95 -254
-100 -265 -6 -15 -32 45 -108 248 l-100 267 -99 0 -99 0 -1 -97z"/>
<path d="M12000 425 l0 -425 265 0 265 0 0 85 0 85 -170 0 -170 0 0 90 0 90
160 0 160 0 0 85 0 85 -160 0 -160 0 0 80 0 80 170 0 170 0 0 85 0 85 -265 0
-265 0 0 -425z"/>
<path d="M12680 425 l0 -425 90 0 90 0 2 273 3 272 138 -272 137 -273 120 0
120 0 0 425 0 425 -90 0 -90 0 0 -287 c0 -158 -4 -283 -8 -278 -5 6 -68 135
-142 288 l-133 277 -119 0 -118 0 0 -425z"/>
<path d="M13470 765 l0 -85 115 0 115 0 0 -340 0 -340 95 0 95 0 0 340 0 340
115 0 115 0 0 85 0 85 -325 0 -325 0 0 -85z"/>
</g>
</svg>
